# xmcd CD database file
#
# Track frame offsets:
#	150
#	11921
#	25186
#	39205
#	51121
#	65307
#	79890
#	95383
#	109392
#	123857
#	137965
#	153011
#	165864
#	178509
#	192693
#	204498
#	216226
#	230135
#	244925
#	259565
#
# Disc length: 3654 seconds
#
# Revision: 1
# Processed by: cddbd v1.5.1PL0 Copyright (c) Steve Scherf et al.
# Submitted via: CDex 1.51
#
DISCID=110e4414
DTITLE=Compilation Country blues 1927-1951 - Country Blues Disc 2
DYEAR=2004
DGENRE=Country
TTITLE0=Sleepy John Estes - Milk cow blues
TTITLE1=Hambone Willie Newbern - Roll and tumble blues
TTITLE2=Robert Tim Wilkins - Dirty deal blues
TTITLE3=Mississipi Sheiks /Sitting on top of the world
TTITLE4=Bo Carter - I want you to know
TTITLE5=Mississipi Matilda - Hard working woman
TTITLE6=Robert Johnson - Ramblin' on my mind
TTITLE7=Bukka White - Parchman farm blues
TTITLE8=Big Joe Williams - Peach orchard mama
TTITLE9=Blind Boy Fuller - Baby you gotta change you mind
TTITLE10=Sonny Terry Blowing the blues
TTITLE11=brownie Mc Ghee - Key to my door
TTITLE12=Oscar Woods - Lone wolf blues
TTITLE13=Sam Lightnin Hopkins - Long way from Texas
TTITLE14=Lil' Son Jackson - Gamnling blues
TTITLE15=Tommy Mc Clennan - Bottle it up and go
TTITLE16=Sonny Boy Williamson - Mighty long time
TTITLE17=Muddy waters - I feel like going home
TTITLE18=Howlin' Wolf - Crying at daybreak
TTITLE19=Elmore James - Dust my broom
EXTD=YEAR: 2004
EXTT0=
EXTT1=
EXTT2=
EXTT3=
EXTT4=
EXTT5=
EXTT6=
EXTT7=
EXTT8=
EXTT9=
EXTT10=
EXTT11=
EXTT12=
EXTT13=
EXTT14=
EXTT15=
EXTT16=
EXTT17=
EXTT18=
EXTT19=
PLAYORDER=
